# xmcd
#
# Track frame offsets: 
#        150
#        13094
#        24450
#        37538
#        54116
#        71041
#        84340
#        101707
#        118050
#        136670
#
# Disc length: 2014 seconds
#
# Revision: 0
# Processed by: cddbd v1.5.1PL0 Copyright (c) Steve Scherf et al.
# Submitted via: ExactAudioCopy v0.95a5
#
DISCID=7107dc0a
DTITLE=Louisa Manuel - Catch A Rainbow
DYEAR=2001
DGENRE=Country
TTITLE0=Oh Yeah
TTITLE1=Fallin' In Love
TTITLE2=I'm Gonna Make You Laugh
TTITLE3=Do You Ever
TTITLE4=Unconditionally
TTITLE5=Figure Me Gone
TTITLE6=I Just Do
TTITLE7=Where Only Eagles Fly
TTITLE8=The Best Thing 
TTITLE9=Complete
EXTD=
EXTT0=
EXTT1=
EXTT2=
EXTT3=
EXTT4=
EXTT5=
EXTT6=
EXTT7=
EXTT8=
EXTT9=
PLAYORDER=
